# xmcd
#
# Track frame offsets: 
#        182
#        19457
#        37827
#        54492
#        77252
#        99482
#        108267
#        129120
#        152422
#        171107
#        190550
#        204507
#
# Disc length: 2974 seconds
#
# Revision: 0
# Processed by: cddbd v1.5.2PL0 Copyright (c) Steve Scherf et al.
# Submitted via: ExactAudioCopy v0.99pb3
#
DISCID=810b9c0c
DTITLE=Various Artist - Grind It! Ann Arbor Blues and Jazz Festival Volume 3
DYEAR=1996
DGENRE=Blues
TTITLE0=Roosevelt Sykes - Driving Wheel
TTITLE1=Roosevelt Sykes - The Night Time Is The Right Time
TTITLE2=Roosevelt Sykes - Run This Boogie
TTITLE3=Roosevelt Sykes - St. James Infirmary
TTITLE4=Roosevelt Sykes - Dirty Mother For You
TTITLE5=Roosevelt Sykes - Looka Here! (C'mon Let's Shake)
TTITLE6=Victoria Spivey - Black Snake Blues
TTITLE7=Victoria Spivey - Detroit Moan
TTITLE8=Victoria Spivey - Low Down Man Blues (You're A Rank Stud)
TTITLE9=Victoria Spivey - Organ Grinder Blues
TTITLE10=Victoria Spivey - I'm Tired
TTITLE11=Victoria Spivey - Brooklyn Bridge Blues
EXTD=
EXTT0=
EXTT1=
EXTT2=
EXTT3=
EXTT4=
EXTT5=
EXTT6=
EXTT7=
EXTT8=
EXTT9=
EXTT10=
EXTT11=
PLAYORDER=
